<?xml version="1.0" encoding="UTF-8" standalone="no"?>
<!DOCTYPE svg PUBLIC "-//W3C//DTD SVG 1.1//EN"
 "http://www.w3.org/Graphics/SVG/1.1/DTD/svg11.dtd">
<!-- Generated by graphviz version 2.43.0 (0)
 -->
<!-- Title: fz::Stage Pages: 1 -->
<svg width="230pt" height="418pt"
 viewBox="0.00 0.00 230.00 417.50" xmlns="http://www.w3.org/2000/svg" xmlns:xlink="http://www.w3.org/1999/xlink">
<g id="graph0" class="graph" transform="scale(1 1) rotate(0) translate(4 413.5)">
<title>fz::Stage</title>
<!-- Node1 -->
<g id="Node000001" class="node">
<title>Node1</title>
<g id="a_Node000001"><a xlink:title=" ">
<polygon fill="#999999" stroke="#666666" points="59,-216.5 0,-216.5 0,-197.5 59,-197.5 59,-216.5"/>
<text text-anchor="middle" x="29.5" y="-204.5" font-family="Helvetica,sans-Serif" font-size="10.00">fz::Stage</text>
</a>
</g>
</g>
<!-- Node2 -->
<g id="Node000002" class="node">
<title>Node2</title>
<g id="a_Node000002"><a xlink:href="classfz_1_1BitpackStage.html" target="_top" xlink:title=" ">
<polygon fill="white" stroke="#666666" points="221,-409.5 96,-409.5 96,-390.5 221,-390.5 221,-409.5"/>
<text text-anchor="middle" x="158.5" y="-397.5" font-family="Helvetica,sans-Serif" font-size="10.00">fz::BitpackStage&lt; T &gt;</text>
</a>
</g>
</g>
<!-- Node1&#45;&gt;Node2 -->
<g id="edge1_Node000001_Node000002" class="edge">
<title>Node1&#45;&gt;Node2</title>
<g id="a_edge1_Node000001_Node000002"><a xlink:title=" ">
<path fill="none" stroke="#63b8ff" d="M32.08,-226.8C36.05,-262.96 49.64,-339.82 95,-382 98.64,-385.38 102.87,-388.14 107.39,-390.37"/>
<polygon fill="#63b8ff" stroke="#63b8ff" points="35.54,-226.21 31.11,-216.59 28.58,-226.88 35.54,-226.21"/>
</a>
</g>
</g>
<!-- Node3 -->
<g id="Node000003" class="node">
<title>Node3</title>
<g id="a_Node000003"><a xlink:href="classfz_1_1BitshuffleStage.html" target="_top" xlink:title=" ">
<polygon fill="white" stroke="#666666" points="211.5,-372.5 105.5,-372.5 105.5,-353.5 211.5,-353.5 211.5,-372.5"/>
<text text-anchor="middle" x="158.5" y="-360.5" font-family="Helvetica,sans-Serif" font-size="10.00">fz::BitshuffleStage</text>
</a>
</g>
</g>
<!-- Node1&#45;&gt;Node3 -->
<g id="edge2_Node000001_Node000003" class="edge">
<title>Node1&#45;&gt;Node3</title>
<g id="a_edge2_Node000001_Node000003"><a xlink:title=" ">
<path fill="none" stroke="#63b8ff" d="M34.4,-226.55C41.35,-256.25 58.68,-312.59 95,-344 99.46,-347.86 104.69,-350.93 110.19,-353.38"/>
<polygon fill="#63b8ff" stroke="#63b8ff" points="37.78,-225.61 32.23,-216.58 30.94,-227.1 37.78,-225.61"/>
</a>
</g>
</g>
<!-- Node4 -->
<g id="Node000004" class="node">
<title>Node4</title>
<g id="a_Node000004"><a xlink:href="classfz_1_1DifferenceStage.html" target="_top" xlink:title=" ">
<polygon fill="white" stroke="#666666" points="213.5,-335 103.5,-335 103.5,-305 213.5,-305 213.5,-335"/>
<text text-anchor="start" x="111.5" y="-323" font-family="Helvetica,sans-Serif" font-size="10.00">fz::DifferenceStage</text>
<text text-anchor="middle" x="158.5" y="-312" font-family="Helvetica,sans-Serif" font-size="10.00">&lt; T, TOut &gt;</text>
</a>
</g>
</g>
<!-- Node1&#45;&gt;Node4 -->
<g id="edge3_Node000001_Node000004" class="edge">
<title>Node1&#45;&gt;Node4</title>
<g id="a_edge3_Node000001_Node000004"><a xlink:title=" ">
<path fill="none" stroke="#63b8ff" d="M39.84,-225.74C50.63,-245.67 70.15,-276.9 95,-296 99.42,-299.4 104.39,-302.37 109.53,-304.95"/>
<polygon fill="#63b8ff" stroke="#63b8ff" points="42.86,-223.97 35.13,-216.72 36.65,-227.21 42.86,-223.97"/>
</a>
</g>
</g>
<!-- Node5 -->
<g id="Node000005" class="node">
<title>Node5</title>
<g id="a_Node000005"><a xlink:href="classfz_1_1LorenzoQuantStage.html" target="_top" xlink:title=" ">
<polygon fill="white" stroke="#666666" points="222,-287 95,-287 95,-257 222,-257 222,-287"/>
<text text-anchor="start" x="103" y="-275" font-family="Helvetica,sans-Serif" font-size="10.00">fz::LorenzoQuantStage</text>
<text text-anchor="middle" x="158.5" y="-264" font-family="Helvetica,sans-Serif" font-size="10.00">&lt; TInput, TCode &gt;</text>
</a>
</g>
</g>
<!-- Node1&#45;&gt;Node5 -->
<g id="edge4_Node000001_Node000005" class="edge">
<title>Node1&#45;&gt;Node5</title>
<g id="a_edge4_Node000001_Node000005"><a xlink:title=" ">
<path fill="none" stroke="#63b8ff" d="M52.45,-222.5C64.63,-230.7 80.27,-240.58 95,-248 101.33,-251.19 108.2,-254.22 114.98,-256.99"/>
<polygon fill="#63b8ff" stroke="#63b8ff" points="54.1,-219.39 43.87,-216.62 50.14,-225.16 54.1,-219.39"/>
</a>
</g>
</g>
<!-- Node6 -->
<g id="Node000006" class="node">
<title>Node6</title>
<g id="a_Node000006"><a xlink:href="classfz_1_1LorenzoStage.html" target="_top" xlink:title=" ">
<polygon fill="white" stroke="#666666" points="221.5,-238.5 95.5,-238.5 95.5,-219.5 221.5,-219.5 221.5,-238.5"/>
<text text-anchor="middle" x="158.5" y="-226.5" font-family="Helvetica,sans-Serif" font-size="10.00">fz::LorenzoStage&lt; T &gt;</text>
</a>
</g>
</g>
<!-- Node1&#45;&gt;Node6 -->
<g id="edge5_Node000001_Node000006" class="edge">
<title>Node1&#45;&gt;Node6</title>
<g id="a_edge5_Node000001_Node000006"><a xlink:title=" ">
<path fill="none" stroke="#63b8ff" d="M69.12,-213.69C79.66,-215.52 91.29,-217.53 102.55,-219.48"/>
<polygon fill="#63b8ff" stroke="#63b8ff" points="69.45,-210.2 59,-211.94 68.26,-217.09 69.45,-210.2"/>
</a>
</g>
</g>
<!-- Node7 -->
<g id="Node000007" class="node">
<title>Node7</title>
<g id="a_Node000007"><a xlink:href="classfz_1_1NegabinaryStage.html" target="_top" xlink:title=" ">
<polygon fill="white" stroke="#666666" points="216.5,-201 100.5,-201 100.5,-171 216.5,-171 216.5,-201"/>
<text text-anchor="start" x="108.5" y="-189" font-family="Helvetica,sans-Serif" font-size="10.00">fz::NegabinaryStage</text>
<text text-anchor="middle" x="158.5" y="-178" font-family="Helvetica,sans-Serif" font-size="10.00">&lt; TIn, TOut &gt;</text>
</a>
</g>
</g>
<!-- Node1&#45;&gt;Node7 -->
<g id="edge6_Node000001_Node000007" class="edge">
<title>Node1&#45;&gt;Node7</title>
<g id="a_edge6_Node000001_Node000007"><a xlink:title=" ">
<path fill="none" stroke="#63b8ff" d="M68.96,-200.64C78.9,-199 89.82,-197.19 100.5,-195.43"/>
<polygon fill="#63b8ff" stroke="#63b8ff" points="68.3,-197.2 59,-202.29 69.44,-204.11 68.3,-197.2"/>
</a>
</g>
</g>
<!-- Node8 -->
<g id="Node000008" class="node">
<title>Node8</title>
<g id="a_Node000008"><a xlink:href="classfz_1_1QuantizerStage.html" target="_top" xlink:title=" ">
<polygon fill="white" stroke="#666666" points="212,-153 105,-153 105,-123 212,-123 212,-153"/>
<text text-anchor="start" x="113" y="-141" font-family="Helvetica,sans-Serif" font-size="10.00">fz::QuantizerStage</text>
<text text-anchor="middle" x="158.5" y="-130" font-family="Helvetica,sans-Serif" font-size="10.00">&lt; TInput, TCode &gt;</text>
</a>
</g>
</g>
<!-- Node1&#45;&gt;Node8 -->
<g id="edge7_Node000001_Node000008" class="edge">
<title>Node1&#45;&gt;Node8</title>
<g id="a_edge7_Node000001_Node000008"><a xlink:title=" ">
<path fill="none" stroke="#63b8ff" d="M50.5,-191.15C62.84,-181.86 79.28,-170.34 95,-162 101.06,-158.79 107.64,-155.78 114.19,-153.05"/>
<polygon fill="#63b8ff" stroke="#63b8ff" points="48.1,-188.58 42.3,-197.45 52.36,-194.13 48.1,-188.58"/>
</a>
</g>
</g>
<!-- Node9 -->
<g id="Node000009" class="node">
<title>Node9</title>
<g id="a_Node000009"><a xlink:href="classfz_1_1RLEStage.html" target="_top" xlink:title=" ">
<polygon fill="white" stroke="#666666" points="211.5,-104.5 105.5,-104.5 105.5,-85.5 211.5,-85.5 211.5,-104.5"/>
<text text-anchor="middle" x="158.5" y="-92.5" font-family="Helvetica,sans-Serif" font-size="10.00">fz::RLEStage&lt; T &gt;</text>
</a>
</g>
</g>
<!-- Node1&#45;&gt;Node9 -->
<g id="edge8_Node000001_Node000009" class="edge">
<title>Node1&#45;&gt;Node9</title>
<g id="a_edge8_Node000001_Node000009"><a xlink:title=" ">
<path fill="none" stroke="#63b8ff" d="M38.9,-188C49.18,-166.9 68.53,-133.29 95,-114 100.32,-110.13 106.43,-107.03 112.71,-104.56"/>
<polygon fill="#63b8ff" stroke="#63b8ff" points="35.65,-186.69 34.6,-197.23 42,-189.65 35.65,-186.69"/>
</a>
</g>
</g>
<!-- Node10 -->
<g id="Node000010" class="node">
<title>Node10</title>
<g id="a_Node000010"><a xlink:href="classfz_1_1RZEStage.html" target="_top" xlink:title=" ">
<polygon fill="white" stroke="#666666" points="198,-67.5 119,-67.5 119,-48.5 198,-48.5 198,-67.5"/>
<text text-anchor="middle" x="158.5" y="-55.5" font-family="Helvetica,sans-Serif" font-size="10.00">fz::RZEStage</text>
</a>
</g>
</g>
<!-- Node1&#45;&gt;Node10 -->
<g id="edge9_Node000001_Node000010" class="edge">
<title>Node1&#45;&gt;Node10</title>
<g id="a_edge9_Node000001_Node000010"><a xlink:title=" ">
<path fill="none" stroke="#63b8ff" d="M35.02,-187.22C42.55,-158.73 60.37,-106.32 95,-77 101.84,-71.21 110.41,-67.18 118.99,-64.38"/>
<polygon fill="#63b8ff" stroke="#63b8ff" points="31.55,-186.65 32.55,-197.2 38.35,-188.33 31.55,-186.65"/>
</a>
</g>
</g>
<!-- Node11 -->
<g id="Node000011" class="node">
<title>Node11</title>
<g id="a_Node000011"><a xlink:href="classfz_1_1ZigzagStage.html" target="_top" xlink:title=" ">
<polygon fill="white" stroke="#666666" points="219.5,-30 97.5,-30 97.5,0 219.5,0 219.5,-30"/>
<text text-anchor="start" x="105.5" y="-18" font-family="Helvetica,sans-Serif" font-size="10.00">fz::ZigzagStage&lt; TIn,</text>
<text text-anchor="middle" x="158.5" y="-7" font-family="Helvetica,sans-Serif" font-size="10.00"> TOut &gt;</text>
</a>
</g>
</g>
<!-- Node1&#45;&gt;Node11 -->
<g id="edge10_Node000001_Node000011" class="edge">
<title>Node1&#45;&gt;Node11</title>
<g id="a_edge10_Node000001_Node000011"><a xlink:title=" ">
<path fill="none" stroke="#63b8ff" d="M32.98,-187.08C38.29,-152.65 53.78,-81.71 95,-40 98.78,-36.18 103.22,-32.92 107.96,-30.15"/>
<polygon fill="#63b8ff" stroke="#63b8ff" points="29.48,-186.87 31.56,-197.26 36.41,-187.84 29.48,-186.87"/>
</a>
</g>
</g>
</g>
</svg>
