<?xml version="1.0" encoding="UTF-8" standalone="no"?>
<!DOCTYPE svg PUBLIC "-//W3C//DTD SVG 1.1//EN"
 "http://www.w3.org/Graphics/SVG/1.1/DTD/svg11.dtd">
<!-- Generated by graphviz version 2.43.0 (0)
 -->
<!-- Title: fz::Stage Pages: 1 -->
<!--zoomable 456 -->

<svg id="main" version="1.1" xmlns="http://www.w3.org/2000/svg" xmlns:xlink="http://www.w3.org/1999/xlink" xml:space="preserve" onload="init(evt)">
<style type="text/css"><![CDATA[
.node, .edge {opacity: 0.7;}
.node.selected, .edge.selected {opacity: 1;}
.edge:hover path { stroke: red; }
.edge:hover polygon { stroke: red; fill: red; }
]]></style>

<defs>
  <circle id="rim" cx="0" cy="0" r="7"/>
  <circle id="rim2" cx="0" cy="0" r="3.5"/>
  <g id="zoomPlus">
    <use xlink:href="#rim" fill="#404040"><set attributeName="fill" to="#808080" begin="zoomplus.mouseover" end="zoomplus.mouseout"/></use>
    <path d="M-4,0h8M0,-4v8" fill="none" stroke="white" stroke-width="1.5" pointer-events="none"/>
  </g>
  <g id="zoomMin">
    <use xlink:href="#rim" fill="#404040"><set attributeName="fill" to="#808080" begin="zoomminus.mouseover" end="zoomminus.mouseout"/></use>
    <path d="M-4,0h8" fill="none" stroke="white" stroke-width="1.5" pointer-events="none"/>
  </g>
  <g id="arrowUp" transform="translate(30 24)">
    <use xlink:href="#rim"/>
    <path pointer-events="none" fill="none" stroke="white" stroke-width="1.5" d="M0,-3.0v7 M-2.5,-0.5L0,-3.0L2.5,-0.5"/>
  </g>
  <g id="arrowRight" transform="rotate(90) translate(36 -43)">
    <use xlink:href="#rim"/>
    <path pointer-events="none" fill="none" stroke="white" stroke-width="1.5" d="M0,-3.0v7 M-2.5,-0.5L0,-3.0L2.5,-0.5"/>
  </g>
  <g id="arrowDown" transform="rotate(180) translate(-30 -48)">
    <use xlink:href="#rim"/>
    <path pointer-events="none" fill="none" stroke="white" stroke-width="1.5" d="M0,-3.0v7 M-2.5,-0.5L0,-3.0L2.5,-0.5"/>
  </g>
  <g id="arrowLeft" transform="rotate(270) translate(-36 17)">
    <use xlink:href="#rim"/>
    <path pointer-events="none" fill="none" stroke="white" stroke-width="1.5" d="M0,-3.0v7 M-2.5,-0.5L0,-3.0L2.5,-0.5"/>
  </g>
  <g id="resetDef">
    <use xlink:href="#rim2" fill="#404040"><set attributeName="fill" to="#808080" begin="reset.mouseover" end="reset.mouseout"/></use>
  </g>
</defs>
<script type="application/ecmascript">
var viewWidth = 233;
var viewHeight = 456;
var sectionId = 'dynsection-0';
</script>
<script type="application/ecmascript" xlink:href="svg.min.js"/>
<svg id="graph" class="graph">
<g id="viewport">
<title>fz::Stage</title>
<!-- Node1 -->
<g id="Node000001" class="node">
<title>Node1</title>
<g id="a_Node000001"><a xlink:title=" ">
<polygon fill="#999999" stroke="#666666" points="59,-238.5 0,-238.5 0,-219.5 59,-219.5 59,-238.5"/>
<text text-anchor="middle" x="29.5" y="-226.5" font-family="Helvetica,sans-Serif" font-size="10.00">fz::Stage</text>
</a>
</g>
</g>
<!-- Node2 -->
<g id="Node000002" class="node">
<title>Node2</title>
<g id="a_Node000002"><a xlink:href="classfz_1_1BitpackStage.html" target="_top" xlink:title=" ">
<polygon fill="white" stroke="#666666" points="222.5,-447.5 97.5,-447.5 97.5,-428.5 222.5,-428.5 222.5,-447.5"/>
<text text-anchor="middle" x="160" y="-435.5" font-family="Helvetica,sans-Serif" font-size="10.00">fz::BitpackStage&lt; T &gt;</text>
</a>
</g>
</g>
<!-- Node1&#45;&gt;Node2 -->
<g id="edge1_Node000001_Node000002" class="edge">
<title>Node1&#45;&gt;Node2</title>
<g id="a_edge1_Node000001_Node000002"><a xlink:title=" ">
<path fill="none" stroke="#63b8ff" d="M31.36,-248.99C34.12,-287.72 45.78,-373.26 95,-420 98.6,-423.42 102.79,-426.2 107.28,-428.45"/>
<polygon fill="#63b8ff" stroke="#63b8ff" points="34.83,-248.35 30.75,-238.57 27.84,-248.76 34.83,-248.35"/>
</a>
</g>
</g>
<!-- Node3 -->
<g id="Node000003" class="node">
<title>Node3</title>
<g id="a_Node000003"><a xlink:href="classfz_1_1BitshuffleStage.html" target="_top" xlink:title=" ">
<polygon fill="white" stroke="#666666" points="213,-410.5 107,-410.5 107,-391.5 213,-391.5 213,-410.5"/>
<text text-anchor="middle" x="160" y="-398.5" font-family="Helvetica,sans-Serif" font-size="10.00">fz::BitshuffleStage</text>
</a>
</g>
</g>
<!-- Node1&#45;&gt;Node3 -->
<g id="edge2_Node000001_Node000003" class="edge">
<title>Node1&#45;&gt;Node3</title>
<g id="a_edge2_Node000001_Node000003"><a xlink:title=" ">
<path fill="none" stroke="#63b8ff" d="M33.28,-248.54C38.94,-281.01 54.85,-346.05 95,-382 99.32,-385.87 104.39,-388.95 109.76,-391.4"/>
<polygon fill="#63b8ff" stroke="#63b8ff" points="36.72,-247.84 31.69,-238.51 29.8,-248.94 36.72,-247.84"/>
</a>
</g>
</g>
<!-- Node4 -->
<g id="Node000004" class="node">
<title>Node4</title>
<g id="a_Node000004"><a xlink:href="classfz_1_1DifferenceStage.html" target="_top" xlink:title=" ">
<polygon fill="white" stroke="#666666" points="215,-373 105,-373 105,-343 215,-343 215,-373"/>
<text text-anchor="start" x="113" y="-361" font-family="Helvetica,sans-Serif" font-size="10.00">fz::DifferenceStage</text>
<text text-anchor="middle" x="160" y="-350" font-family="Helvetica,sans-Serif" font-size="10.00">&lt; T, TOut &gt;</text>
</a>
</g>
</g>
<!-- Node1&#45;&gt;Node4 -->
<g id="edge3_Node000001_Node000004" class="edge">
<title>Node1&#45;&gt;Node4</title>
<g id="a_edge3_Node000001_Node000004"><a xlink:title=" ">
<path fill="none" stroke="#63b8ff" d="M37.65,-248.06C47.32,-271.38 66.65,-310.64 95,-334 99.12,-337.4 103.77,-340.34 108.64,-342.89"/>
<polygon fill="#63b8ff" stroke="#63b8ff" points="40.84,-246.59 33.9,-238.58 34.33,-249.16 40.84,-246.59"/>
</a>
</g>
</g>
<!-- Node5 -->
<g id="Node000005" class="node">
<title>Node5</title>
<g id="a_Node000005"><a xlink:href="classfz_1_1HuffmanStage.html" target="_top" xlink:title=" ">
<polygon fill="white" stroke="#666666" points="225,-324.5 95,-324.5 95,-305.5 225,-305.5 225,-324.5"/>
<text text-anchor="middle" x="160" y="-312.5" font-family="Helvetica,sans-Serif" font-size="10.00">fz::HuffmanStage&lt; T &gt;</text>
</a>
</g>
</g>
<!-- Node1&#45;&gt;Node5 -->
<g id="edge4_Node000001_Node000005" class="edge">
<title>Node1&#45;&gt;Node5</title>
<g id="a_edge4_Node000001_Node000005"><a xlink:title=" ">
<path fill="none" stroke="#63b8ff" d="M43.37,-246.83C55.19,-261.98 74.01,-283.23 95,-296 101.34,-299.86 108.51,-302.97 115.69,-305.47"/>
<polygon fill="#63b8ff" stroke="#63b8ff" points="46.08,-244.6 37.26,-238.73 40.49,-248.82 46.08,-244.6"/>
</a>
</g>
</g>
<!-- Node6 -->
<g id="Node000006" class="node">
<title>Node6</title>
<g id="a_Node000006"><a xlink:href="classfz_1_1LorenzoQuantStage.html" target="_top" xlink:title=" ">
<polygon fill="white" stroke="#666666" points="223.5,-287 96.5,-287 96.5,-257 223.5,-257 223.5,-287"/>
<text text-anchor="start" x="104.5" y="-275" font-family="Helvetica,sans-Serif" font-size="10.00">fz::LorenzoQuantStage</text>
<text text-anchor="middle" x="160" y="-264" font-family="Helvetica,sans-Serif" font-size="10.00">&lt; TInput, TCode &gt;</text>
</a>
</g>
</g>
<!-- Node1&#45;&gt;Node6 -->
<g id="edge5_Node000001_Node000006" class="edge">
<title>Node1&#45;&gt;Node6</title>
<g id="a_edge5_Node000001_Node000006"><a xlink:title=" ">
<path fill="none" stroke="#63b8ff" d="M68.55,-241.73C82.87,-246.52 99.28,-252.01 114.16,-256.99"/>
<polygon fill="#63b8ff" stroke="#63b8ff" points="69.61,-238.4 59.02,-238.54 67.39,-245.04 69.61,-238.4"/>
</a>
</g>
</g>
<!-- Node7 -->
<g id="Node000007" class="node">
<title>Node7</title>
<g id="a_Node000007"><a xlink:href="classfz_1_1LorenzoStage.html" target="_top" xlink:title=" ">
<polygon fill="white" stroke="#666666" points="223,-238.5 97,-238.5 97,-219.5 223,-219.5 223,-238.5"/>
<text text-anchor="middle" x="160" y="-226.5" font-family="Helvetica,sans-Serif" font-size="10.00">fz::LorenzoStage&lt; T &gt;</text>
</a>
</g>
</g>
<!-- Node1&#45;&gt;Node7 -->
<g id="edge6_Node000001_Node000007" class="edge">
<title>Node1&#45;&gt;Node7</title>
<g id="a_edge6_Node000001_Node000007"><a xlink:title=" ">
<path fill="none" stroke="#63b8ff" d="M69.25,-229C77.98,-229 87.47,-229 96.89,-229"/>
<polygon fill="#63b8ff" stroke="#63b8ff" points="69.02,-225.5 59.02,-229 69.02,-232.5 69.02,-225.5"/>
</a>
</g>
</g>
<!-- Node8 -->
<g id="Node000008" class="node">
<title>Node8</title>
<g id="a_Node000008"><a xlink:href="classfz_1_1NegabinaryStage.html" target="_top" xlink:title=" ">
<polygon fill="white" stroke="#666666" points="218,-201 102,-201 102,-171 218,-171 218,-201"/>
<text text-anchor="start" x="110" y="-189" font-family="Helvetica,sans-Serif" font-size="10.00">fz::NegabinaryStage</text>
<text text-anchor="middle" x="160" y="-178" font-family="Helvetica,sans-Serif" font-size="10.00">&lt; TIn, TOut &gt;</text>
</a>
</g>
</g>
<!-- Node1&#45;&gt;Node8 -->
<g id="edge7_Node000001_Node000008" class="edge">
<title>Node1&#45;&gt;Node8</title>
<g id="a_edge7_Node000001_Node000008"><a xlink:title=" ">
<path fill="none" stroke="#63b8ff" d="M68.55,-216.27C82.87,-211.48 99.28,-205.99 114.16,-201.01"/>
<polygon fill="#63b8ff" stroke="#63b8ff" points="67.39,-212.96 59.02,-219.46 69.61,-219.6 67.39,-212.96"/>
</a>
</g>
</g>
<!-- Node9 -->
<g id="Node000009" class="node">
<title>Node9</title>
<g id="a_Node000009"><a xlink:href="classfz_1_1QuantizerStage.html" target="_top" xlink:title=" ">
<polygon fill="white" stroke="#666666" points="213.5,-153 106.5,-153 106.5,-123 213.5,-123 213.5,-153"/>
<text text-anchor="start" x="114.5" y="-141" font-family="Helvetica,sans-Serif" font-size="10.00">fz::QuantizerStage</text>
<text text-anchor="middle" x="160" y="-130" font-family="Helvetica,sans-Serif" font-size="10.00">&lt; TInput, TCode &gt;</text>
</a>
</g>
</g>
<!-- Node1&#45;&gt;Node9 -->
<g id="edge8_Node000001_Node000009" class="edge">
<title>Node1&#45;&gt;Node9</title>
<g id="a_edge8_Node000001_Node000009"><a xlink:title=" ">
<path fill="none" stroke="#63b8ff" d="M43.6,-211.53C55.56,-196.61 74.47,-175.49 95,-162 100.06,-158.68 105.64,-155.72 111.34,-153.13"/>
<polygon fill="#63b8ff" stroke="#63b8ff" points="40.78,-209.45 37.4,-219.49 46.3,-213.75 40.78,-209.45"/>
</a>
</g>
</g>
<!-- Node10 -->
<g id="Node000010" class="node">
<title>Node10</title>
<g id="a_Node000010"><a xlink:href="classfz_1_1RLEStage.html" target="_top" xlink:title=" ">
<polygon fill="white" stroke="#666666" points="213,-104.5 107,-104.5 107,-85.5 213,-85.5 213,-104.5"/>
<text text-anchor="middle" x="160" y="-92.5" font-family="Helvetica,sans-Serif" font-size="10.00">fz::RLEStage&lt; T &gt;</text>
</a>
</g>
</g>
<!-- Node1&#45;&gt;Node10 -->
<g id="edge9_Node000001_Node000010" class="edge">
<title>Node1&#45;&gt;Node10</title>
<g id="a_edge9_Node000001_Node000010"><a xlink:title=" ">
<path fill="none" stroke="#63b8ff" d="M36.26,-209.64C44.87,-184.01 63.55,-139.13 95,-114 99.89,-110.09 105.56,-106.99 111.47,-104.52"/>
<polygon fill="#63b8ff" stroke="#63b8ff" points="32.87,-208.74 33.17,-219.33 39.54,-210.86 32.87,-208.74"/>
</a>
</g>
</g>
<!-- Node11 -->
<g id="Node000011" class="node">
<title>Node11</title>
<g id="a_Node000011"><a xlink:href="classfz_1_1RZEStage.html" target="_top" xlink:title=" ">
<polygon fill="white" stroke="#666666" points="199.5,-67.5 120.5,-67.5 120.5,-48.5 199.5,-48.5 199.5,-67.5"/>
<text text-anchor="middle" x="160" y="-55.5" font-family="Helvetica,sans-Serif" font-size="10.00">fz::RZEStage</text>
</a>
</g>
</g>
<!-- Node1&#45;&gt;Node11 -->
<g id="edge10_Node000001_Node000011" class="edge">
<title>Node1&#45;&gt;Node11</title>
<g id="a_edge10_Node000001_Node000011"><a xlink:title=" ">
<path fill="none" stroke="#63b8ff" d="M33.4,-209.12C39.19,-176.71 55.22,-112.53 95,-77 102.09,-70.67 111.2,-66.44 120.32,-63.63"/>
<polygon fill="#63b8ff" stroke="#63b8ff" points="29.92,-208.73 31.76,-219.16 36.83,-209.86 29.92,-208.73"/>
</a>
</g>
</g>
<!-- Node12 -->
<g id="Node000012" class="node">
<title>Node12</title>
<g id="a_Node000012"><a xlink:href="classfz_1_1ZigzagStage.html" target="_top" xlink:title=" ">
<polygon fill="white" stroke="#666666" points="221,-30 99,-30 99,0 221,0 221,-30"/>
<text text-anchor="start" x="107" y="-18" font-family="Helvetica,sans-Serif" font-size="10.00">fz::ZigzagStage&lt; TIn,</text>
<text text-anchor="middle" x="160" y="-7" font-family="Helvetica,sans-Serif" font-size="10.00"> TOut &gt;</text>
</a>
</g>
</g>
<!-- Node1&#45;&gt;Node12 -->
<g id="edge11_Node000001_Node000012" class="edge">
<title>Node1&#45;&gt;Node12</title>
<g id="a_edge11_Node000001_Node000012"><a xlink:title=" ">
<path fill="none" stroke="#63b8ff" d="M31.89,-209.09C35.56,-171.24 48.72,-88.34 95,-40 98.71,-36.12 103.1,-32.84 107.8,-30.05"/>
<polygon fill="#63b8ff" stroke="#63b8ff" points="28.38,-209.05 31.03,-219.31 35.35,-209.64 28.38,-209.05"/>
</a>
</g>
</g>
</g>
</svg>

<g id="navigator" transform="translate(0 0)" fill="#404254">
  <rect fill="#f2f5e9" fill-opacity="0.5" stroke="#606060" stroke-width=".5" x="0" y="0" width="60" height="60"/>
  <use id="zoomplus" xlink:href="#zoomPlus" x="17" y="9" onmousedown="handleZoom(evt,'in')"/>
  <use id="zoomminus" xlink:href="#zoomMin" x="42" y="9" onmousedown="handleZoom(evt,'out')"/>
  <use id="reset" xlink:href="#resetDef" x="30" y="36" onmousedown="handleReset()"/>
   <use id="arrowup" xlink:href="#arrowUp" x="0" y="0" onmousedown="handlePan(0,-1)"/>
  <use id="arrowright" xlink:href="#arrowRight" x="0" y="0" onmousedown="handlePan(1,0)"/>
  <use id="arrowdown" xlink:href="#arrowDown" x="0" y="0" onmousedown="handlePan(0,1)"/>
  <use id="arrowleft" xlink:href="#arrowLeft" x="0" y="0" onmousedown="handlePan(-1,0)"/>
</g>
<svg viewBox="0 0 15 15" width="100%" height="30px" preserveAspectRatio="xMaxYMin meet">
 <g id="arrow_out" transform="scale(0.3 0.3)">
  <a xlink:href="classfz_1_1Stage__inherit__graph_org.svg" target="_base">
   <rect id="button" ry="5" rx="5" y="6" x="6" height="38" width="38"
        fill="#f2f5e9" fill-opacity="0.5" stroke="#606060" stroke-width="1.0"/>
   <path id="arrow"
     d="M 11.500037,31.436501 C 11.940474,20.09759 22.043105,11.32322 32.158766,21.979434 L 37.068811,17.246167 C 37.068811,17.246167 37.088388,32 37.088388,32 L 22.160133,31.978069 C 22.160133,31.978069 26.997745,27.140456 26.997745,27.140456 C 18.528582,18.264221 13.291696,25.230495 11.500037,31.436501 z"
     style="fill:#404040;"/>
  </a>
 </g>
</svg>

<style type='text/css'>
<![CDATA[
[data-mouse-over-selected='false'] { opacity: 0.7; }
[data-mouse-over-selected='true']  { opacity: 1.0; }
]]>
</style>
<script type="application/ecmascript"><![CDATA[
document.addEventListener('DOMContentLoaded', (event) => {
  highlightEdges();
  highlightAdjacentNodes();
});
]]></script>
</svg>
