<?xml version="1.0" encoding="UTF-8" standalone="no"?>
<!DOCTYPE svg PUBLIC "-//W3C//DTD SVG 1.1//EN"
 "http://www.w3.org/Graphics/SVG/1.1/DTD/svg11.dtd">
<!-- Generated by graphviz version 2.43.0 (0)
 -->
<!-- Title: modules Pages: 1 -->
<svg width="565pt" height="98pt"
 viewBox="0.00 0.00 565.00 98.00" xmlns="http://www.w3.org/2000/svg" xmlns:xlink="http://www.w3.org/1999/xlink">
<g id="graph0" class="graph" transform="scale(1 1) rotate(0) translate(4 94)">
<title>modules</title>
<g id="clust1" class="cluster">
<title>clusterdir_e05d7e2b1ecd646af5bb94391405f3b5</title>
<g id="a_clust1"><a xlink:href="dir_e05d7e2b1ecd646af5bb94391405f3b5.html" target="_top">
<polygon fill="#edf0f7" stroke="#404040" stroke-width="2" points="8,-47 8,-82 549,-82 549,-47 8,-47"/>
</a>
</g>
</g>
<!-- dir_e05d7e2b1ecd646af5bb94391405f3b5 -->
<g id="node1" class="node">
<title>dir_e05d7e2b1ecd646af5bb94391405f3b5</title>
<text text-anchor="middle" x="511" y="-62" font-family="Helvetica,sans-Serif" font-size="10.00">modules</text>
</g>
<!-- dir_27d071c2886d8c6831e2265dab8e4463 -->
<g id="node2" class="node">
<title>dir_27d071c2886d8c6831e2265dab8e4463</title>
<g id="a_node2"><a xlink:href="dir_27d071c2886d8c6831e2265dab8e4463.html" target="_top" xlink:title="coders">
<polygon fill="#a2b4d6" stroke="#404040" points="463.5,-74 414.5,-74 414.5,-55 463.5,-55 463.5,-74"/>
<text text-anchor="middle" x="439" y="-62" font-family="Helvetica,sans-Serif" font-size="10.00">coders</text>
</a>
</g>
</g>
<!-- dir_d44c64559bbebec7f509842c48db8b23 -->
<g id="node8" class="node">
<title>dir_d44c64559bbebec7f509842c48db8b23</title>
<g id="a_node8"><a xlink:href="dir_d44c64559bbebec7f509842c48db8b23.html" target="_top" xlink:title="include">
<polygon fill="#edf0f7" stroke="red" points="284,-19 232,-19 232,0 284,0 284,-19"/>
<text text-anchor="middle" x="258" y="-7" font-family="Helvetica,sans-Serif" font-size="10.00">include</text>
</a>
</g>
</g>
<!-- dir_27d071c2886d8c6831e2265dab8e4463&#45;&gt;dir_d44c64559bbebec7f509842c48db8b23 -->
<g id="edge1" class="edge">
<title>dir_27d071c2886d8c6831e2265dab8e4463&#45;&gt;dir_d44c64559bbebec7f509842c48db8b23</title>
<g id="a_edge1"><a xlink:href="dir_000002_000006.html" target="_top">
<path fill="none" stroke="#63b8ff" d="M423.04,-54.91C417.44,-52.12 411.05,-49.19 405,-47 368.18,-33.66 324.44,-23.49 294.3,-17.31"/>
<polygon fill="#63b8ff" stroke="#63b8ff" points="294.74,-13.83 284.24,-15.3 293.36,-20.69 294.74,-13.83"/>
</a>
</g>
<g id="a_edge1&#45;headlabel"><a xlink:href="dir_000002_000006.html" target="_top" xlink:title="3">
<text text-anchor="middle" x="298.82" y="-9.25" font-family="Helvetica,sans-Serif" font-size="10.00" fill="#63b8ff">3</text>
</a>
</g>
</g>
<!-- dir_0b787baa76c39143b24149c6a7d995f1 -->
<g id="node3" class="node">
<title>dir_0b787baa76c39143b24149c6a7d995f1</title>
<g id="a_node3"><a xlink:href="dir_0b787baa76c39143b24149c6a7d995f1.html" target="_top" xlink:title="fused">
<polygon fill="#a2b4d6" stroke="#404040" points="396,-74 352,-74 352,-55 396,-55 396,-74"/>
<text text-anchor="middle" x="374" y="-62" font-family="Helvetica,sans-Serif" font-size="10.00">fused</text>
</a>
</g>
</g>
<!-- dir_0b787baa76c39143b24149c6a7d995f1&#45;&gt;dir_d44c64559bbebec7f509842c48db8b23 -->
<g id="edge2" class="edge">
<title>dir_0b787baa76c39143b24149c6a7d995f1&#45;&gt;dir_d44c64559bbebec7f509842c48db8b23</title>
<g id="a_edge2"><a xlink:href="dir_000005_000006.html" target="_top">
<path fill="none" stroke="#63b8ff" d="M358.36,-54.85C353.48,-52.24 348.06,-49.43 343,-47 325.25,-38.49 305.02,-29.76 288.74,-22.97"/>
<polygon fill="#63b8ff" stroke="#63b8ff" points="289.76,-19.6 279.18,-19.02 287.08,-26.07 289.76,-19.6"/>
</a>
</g>
<g id="a_edge2&#45;headlabel"><a xlink:href="dir_000005_000006.html" target="_top" xlink:title="1">
<text text-anchor="middle" x="294.16" y="-15.85" font-family="Helvetica,sans-Serif" font-size="10.00" fill="#63b8ff">1</text>
</a>
</g>
</g>
<!-- dir_039aa6e2e019ab01d105c6f4af9f7064 -->
<g id="node4" class="node">
<title>dir_039aa6e2e019ab01d105c6f4af9f7064</title>
<g id="a_node4"><a xlink:href="dir_039aa6e2e019ab01d105c6f4af9f7064.html" target="_top" xlink:title="predictors">
<polygon fill="#a2b4d6" stroke="#404040" points="333.5,-74 268.5,-74 268.5,-55 333.5,-55 333.5,-74"/>
<text text-anchor="middle" x="301" y="-62" font-family="Helvetica,sans-Serif" font-size="10.00">predictors</text>
</a>
</g>
</g>
<!-- dir_039aa6e2e019ab01d105c6f4af9f7064&#45;&gt;dir_d44c64559bbebec7f509842c48db8b23 -->
<g id="edge3" class="edge">
<title>dir_039aa6e2e019ab01d105c6f4af9f7064&#45;&gt;dir_d44c64559bbebec7f509842c48db8b23</title>
<g id="a_edge3"><a xlink:href="dir_000013_000006.html" target="_top">
<path fill="none" stroke="#63b8ff" d="M293.9,-54.75C287.83,-47.26 278.91,-36.28 271.49,-27.13"/>
<polygon fill="#63b8ff" stroke="#63b8ff" points="273.99,-24.65 264.97,-19.09 268.55,-29.06 273.99,-24.65"/>
</a>
</g>
<g id="a_edge3&#45;headlabel"><a xlink:href="dir_000013_000006.html" target="_top" xlink:title="2">
<text text-anchor="middle" x="278.46" y="-23.15" font-family="Helvetica,sans-Serif" font-size="10.00" fill="#63b8ff">2</text>
</a>
</g>
</g>
<!-- dir_a2119d90ee9eaca2bda1658db717bef2 -->
<g id="node5" class="node">
<title>dir_a2119d90ee9eaca2bda1658db717bef2</title>
<g id="a_node5"><a xlink:href="dir_a2119d90ee9eaca2bda1658db717bef2.html" target="_top" xlink:title="quantizers">
<polygon fill="#a2b4d6" stroke="#404040" points="250,-74 182,-74 182,-55 250,-55 250,-74"/>
<text text-anchor="middle" x="216" y="-62" font-family="Helvetica,sans-Serif" font-size="10.00">quantizers</text>
</a>
</g>
</g>
<!-- dir_a2119d90ee9eaca2bda1658db717bef2&#45;&gt;dir_d44c64559bbebec7f509842c48db8b23 -->
<g id="edge4" class="edge">
<title>dir_a2119d90ee9eaca2bda1658db717bef2&#45;&gt;dir_d44c64559bbebec7f509842c48db8b23</title>
<g id="a_edge4"><a xlink:href="dir_000015_000006.html" target="_top">
<path fill="none" stroke="#63b8ff" d="M222.94,-54.75C228.87,-47.26 237.57,-36.28 244.82,-27.13"/>
<polygon fill="#63b8ff" stroke="#63b8ff" points="247.73,-29.1 251.19,-19.09 242.24,-24.75 247.73,-29.1"/>
</a>
</g>
<g id="a_edge4&#45;headlabel"><a xlink:href="dir_000015_000006.html" target="_top" xlink:title="1">
<text text-anchor="middle" x="247.72" y="-31.18" font-family="Helvetica,sans-Serif" font-size="10.00" fill="#63b8ff">1</text>
</a>
</g>
</g>
<!-- dir_36b1b4d9ea96a964d1f9ce85150c8ffa -->
<g id="node6" class="node">
<title>dir_36b1b4d9ea96a964d1f9ce85150c8ffa</title>
<g id="a_node6"><a xlink:href="dir_36b1b4d9ea96a964d1f9ce85150c8ffa.html" target="_top" xlink:title="shufflers">
<polygon fill="#a2b4d6" stroke="#404040" points="163.5,-74 104.5,-74 104.5,-55 163.5,-55 163.5,-74"/>
<text text-anchor="middle" x="134" y="-62" font-family="Helvetica,sans-Serif" font-size="10.00">shufflers</text>
</a>
</g>
</g>
<!-- dir_36b1b4d9ea96a964d1f9ce85150c8ffa&#45;&gt;dir_d44c64559bbebec7f509842c48db8b23 -->
<g id="edge5" class="edge">
<title>dir_36b1b4d9ea96a964d1f9ce85150c8ffa&#45;&gt;dir_d44c64559bbebec7f509842c48db8b23</title>
<g id="a_edge5"><a xlink:href="dir_000018_000006.html" target="_top">
<path fill="none" stroke="#63b8ff" d="M153.92,-54.98C174.05,-46.38 205.38,-32.99 228.41,-23.15"/>
<polygon fill="#63b8ff" stroke="#63b8ff" points="229.9,-26.32 237.71,-19.17 227.14,-19.88 229.9,-26.32"/>
</a>
</g>
<g id="a_edge5&#45;headlabel"><a xlink:href="dir_000018_000006.html" target="_top" xlink:title="1">
<text text-anchor="middle" x="227.71" y="-27.84" font-family="Helvetica,sans-Serif" font-size="10.00" fill="#63b8ff">1</text>
</a>
</g>
</g>
<!-- dir_26960c617593da76b6bdca1596cef581 -->
<g id="node7" class="node">
<title>dir_26960c617593da76b6bdca1596cef581</title>
<g id="a_node7"><a xlink:href="dir_26960c617593da76b6bdca1596cef581.html" target="_top" xlink:title="transforms">
<polygon fill="#a2b4d6" stroke="#404040" points="86,-74 16,-74 16,-55 86,-55 86,-74"/>
<text text-anchor="middle" x="51" y="-62" font-family="Helvetica,sans-Serif" font-size="10.00">transforms</text>
</a>
</g>
</g>
<!-- dir_26960c617593da76b6bdca1596cef581&#45;&gt;dir_d44c64559bbebec7f509842c48db8b23 -->
<g id="edge6" class="edge">
<title>dir_26960c617593da76b6bdca1596cef581&#45;&gt;dir_d44c64559bbebec7f509842c48db8b23</title>
<g id="a_edge6"><a xlink:href="dir_000021_000006.html" target="_top">
<path fill="none" stroke="#63b8ff" d="M72.78,-54.87C80.09,-52.14 88.34,-49.26 96,-47 138.67,-34.43 188.76,-23.75 221.82,-17.25"/>
<polygon fill="#63b8ff" stroke="#63b8ff" points="222.77,-20.63 231.92,-15.29 221.44,-13.76 222.77,-20.63"/>
</a>
</g>
<g id="a_edge6&#45;headlabel"><a xlink:href="dir_000021_000006.html" target="_top" xlink:title="2">
<text text-anchor="middle" x="219.78" y="-21.6" font-family="Helvetica,sans-Serif" font-size="10.00" fill="#63b8ff">2</text>
</a>
</g>
</g>
</g>
</svg>
