<?xml version="1.0" encoding="UTF-8" standalone="no"?>
<!DOCTYPE svg PUBLIC "-//W3C//DTD SVG 1.1//EN"
 "http://www.w3.org/Graphics/SVG/1.1/DTD/svg11.dtd">
<!-- Generated by graphviz version 2.43.0 (0)
 -->
<!-- Title: modules Pages: 1 -->
<!--zoomable 153 -->

<svg id="main" version="1.1" xmlns="http://www.w3.org/2000/svg" xmlns:xlink="http://www.w3.org/1999/xlink" xml:space="preserve" onload="init(evt)">
<style type="text/css"><![CDATA[
.node, .edge {opacity: 0.7;}
.node.selected, .edge.selected {opacity: 1;}
.edge:hover path { stroke: red; }
.edge:hover polygon { stroke: red; fill: red; }
]]></style>

<defs>
  <circle id="rim" cx="0" cy="0" r="7"/>
  <circle id="rim2" cx="0" cy="0" r="3.5"/>
  <g id="zoomPlus">
    <use xlink:href="#rim" fill="#404040"><set attributeName="fill" to="#808080" begin="zoomplus.mouseover" end="zoomplus.mouseout"/></use>
    <path d="M-4,0h8M0,-4v8" fill="none" stroke="white" stroke-width="1.5" pointer-events="none"/>
  </g>
  <g id="zoomMin">
    <use xlink:href="#rim" fill="#404040"><set attributeName="fill" to="#808080" begin="zoomminus.mouseover" end="zoomminus.mouseout"/></use>
    <path d="M-4,0h8" fill="none" stroke="white" stroke-width="1.5" pointer-events="none"/>
  </g>
  <g id="arrowUp" transform="translate(30 24)">
    <use xlink:href="#rim"/>
    <path pointer-events="none" fill="none" stroke="white" stroke-width="1.5" d="M0,-3.0v7 M-2.5,-0.5L0,-3.0L2.5,-0.5"/>
  </g>
  <g id="arrowRight" transform="rotate(90) translate(36 -43)">
    <use xlink:href="#rim"/>
    <path pointer-events="none" fill="none" stroke="white" stroke-width="1.5" d="M0,-3.0v7 M-2.5,-0.5L0,-3.0L2.5,-0.5"/>
  </g>
  <g id="arrowDown" transform="rotate(180) translate(-30 -48)">
    <use xlink:href="#rim"/>
    <path pointer-events="none" fill="none" stroke="white" stroke-width="1.5" d="M0,-3.0v7 M-2.5,-0.5L0,-3.0L2.5,-0.5"/>
  </g>
  <g id="arrowLeft" transform="rotate(270) translate(-36 17)">
    <use xlink:href="#rim"/>
    <path pointer-events="none" fill="none" stroke="white" stroke-width="1.5" d="M0,-3.0v7 M-2.5,-0.5L0,-3.0L2.5,-0.5"/>
  </g>
  <g id="resetDef">
    <use xlink:href="#rim2" fill="#404040"><set attributeName="fill" to="#808080" begin="reset.mouseover" end="reset.mouseout"/></use>
  </g>
</defs>
<script type="application/ecmascript">
var viewWidth = 552;
var viewHeight = 153;
var sectionId = 'dynsection-0';
</script>
<script type="application/ecmascript" xlink:href="svg.min.js"/>
<svg id="graph" class="graph">
<g id="viewport">
<title>modules</title>
<g id="clust1" class="cluster">
<title>clusterdir_e05d7e2b1ecd646af5bb94391405f3b5</title>
<g id="a_clust1"><a xlink:href="dir_e05d7e2b1ecd646af5bb94391405f3b5.html" target="_top">
<polygon fill="#edf0f7" stroke="#404040" stroke-width="2" points="8,-47 8,-137 536,-137 536,-47 8,-47"/>
</a>
</g>
</g>
<!-- dir_e05d7e2b1ecd646af5bb94391405f3b5 -->
<g id="node1" class="node">
<title>dir_e05d7e2b1ecd646af5bb94391405f3b5</title>
<text text-anchor="middle" x="498" y="-117" font-family="Helvetica,sans-Serif" font-size="10.00">modules</text>
</g>
<!-- dir_27d071c2886d8c6831e2265dab8e4463 -->
<g id="node2" class="node">
<title>dir_27d071c2886d8c6831e2265dab8e4463</title>
<g id="a_node2"><a xlink:href="dir_27d071c2886d8c6831e2265dab8e4463.html" target="_top" xlink:title="coders">
<polygon fill="#a2b4d6" stroke="#404040" points="201.5,-129 152.5,-129 152.5,-110 201.5,-110 201.5,-129"/>
<text text-anchor="middle" x="177" y="-117" font-family="Helvetica,sans-Serif" font-size="10.00">coders</text>
</a>
</g>
</g>
<!-- dir_d44c64559bbebec7f509842c48db8b23 -->
<g id="node9" class="node">
<title>dir_d44c64559bbebec7f509842c48db8b23</title>
<g id="a_node9"><a xlink:href="dir_d44c64559bbebec7f509842c48db8b23.html" target="_top" xlink:title="include">
<polygon fill="#edf0f7" stroke="red" points="255,-19 203,-19 203,0 255,0 255,-19"/>
<text text-anchor="middle" x="229" y="-7" font-family="Helvetica,sans-Serif" font-size="10.00">include</text>
</a>
</g>
</g>
<!-- dir_27d071c2886d8c6831e2265dab8e4463&#45;&gt;dir_d44c64559bbebec7f509842c48db8b23 -->
<g id="edge1" class="edge">
<title>dir_27d071c2886d8c6831e2265dab8e4463&#45;&gt;dir_d44c64559bbebec7f509842c48db8b23</title>
<g id="a_edge1"><a xlink:href="dir_000002_000008.html" target="_top">
<path fill="none" stroke="#63b8ff" d="M181.26,-109.66C189.79,-91.93 209.15,-51.73 220.42,-28.32"/>
<polygon fill="#63b8ff" stroke="#63b8ff" points="223.65,-29.69 224.83,-19.16 217.34,-26.65 223.65,-29.69"/>
</a>
</g>
<g id="a_edge1&#45;headlabel"><a xlink:href="dir_000002_000008.html" target="_top" xlink:title="10">
<text text-anchor="middle" x="224.65" y="-31.66" font-family="Helvetica,sans-Serif" font-size="10.00" fill="#63b8ff">10</text>
</a>
</g>
</g>
<!-- dir_0b787baa76c39143b24149c6a7d995f1 -->
<g id="node3" class="node">
<title>dir_0b787baa76c39143b24149c6a7d995f1</title>
<g id="a_node3"><a xlink:href="dir_0b787baa76c39143b24149c6a7d995f1.html" target="_top" xlink:title="fused">
<polygon fill="#a2b4d6" stroke="#404040" points="124,-74 80,-74 80,-55 124,-55 124,-74"/>
<text text-anchor="middle" x="102" y="-62" font-family="Helvetica,sans-Serif" font-size="10.00">fused</text>
</a>
</g>
</g>
<!-- dir_0b787baa76c39143b24149c6a7d995f1&#45;&gt;dir_d44c64559bbebec7f509842c48db8b23 -->
<g id="edge2" class="edge">
<title>dir_0b787baa76c39143b24149c6a7d995f1&#45;&gt;dir_d44c64559bbebec7f509842c48db8b23</title>
<g id="a_edge2"><a xlink:href="dir_000005_000008.html" target="_top">
<path fill="none" stroke="#63b8ff" d="M122.4,-54.98C143.02,-46.38 175.11,-32.99 198.69,-23.15"/>
<polygon fill="#63b8ff" stroke="#63b8ff" points="200.34,-26.25 208.22,-19.17 197.65,-19.79 200.34,-26.25"/>
</a>
</g>
<g id="a_edge2&#45;headlabel"><a xlink:href="dir_000005_000008.html" target="_top" xlink:title="2">
<text text-anchor="middle" x="198.12" y="-27.76" font-family="Helvetica,sans-Serif" font-size="10.00" fill="#63b8ff">2</text>
</a>
</g>
</g>
<!-- dir_039aa6e2e019ab01d105c6f4af9f7064 -->
<g id="node4" class="node">
<title>dir_039aa6e2e019ab01d105c6f4af9f7064</title>
<g id="a_node4"><a xlink:href="dir_039aa6e2e019ab01d105c6f4af9f7064.html" target="_top" xlink:title="predictors">
<polygon fill="#a2b4d6" stroke="#404040" points="284.5,-129 219.5,-129 219.5,-110 284.5,-110 284.5,-129"/>
<text text-anchor="middle" x="252" y="-117" font-family="Helvetica,sans-Serif" font-size="10.00">predictors</text>
</a>
</g>
</g>
<!-- dir_039aa6e2e019ab01d105c6f4af9f7064&#45;&gt;dir_d44c64559bbebec7f509842c48db8b23 -->
<g id="edge3" class="edge">
<title>dir_039aa6e2e019ab01d105c6f4af9f7064&#45;&gt;dir_d44c64559bbebec7f509842c48db8b23</title>
<g id="a_edge3"><a xlink:href="dir_000016_000008.html" target="_top">
<path fill="none" stroke="#63b8ff" d="M250.12,-109.66C246.38,-92.09 237.93,-52.45 232.93,-28.95"/>
<polygon fill="#63b8ff" stroke="#63b8ff" points="236.35,-28.21 230.84,-19.16 229.5,-29.67 236.35,-28.21"/>
</a>
</g>
<g id="a_edge3&#45;headlabel"><a xlink:href="dir_000016_000008.html" target="_top" xlink:title="4">
<text text-anchor="middle" x="239.88" y="-28.63" font-family="Helvetica,sans-Serif" font-size="10.00" fill="#63b8ff">4</text>
</a>
</g>
</g>
<!-- dir_a2119d90ee9eaca2bda1658db717bef2 -->
<g id="node5" class="node">
<title>dir_a2119d90ee9eaca2bda1658db717bef2</title>
<g id="a_node5"><a xlink:href="dir_a2119d90ee9eaca2bda1658db717bef2.html" target="_top" xlink:title="quantizers">
<polygon fill="#a2b4d6" stroke="#404040" points="134,-129 66,-129 66,-110 134,-110 134,-129"/>
<text text-anchor="middle" x="100" y="-117" font-family="Helvetica,sans-Serif" font-size="10.00">quantizers</text>
</a>
</g>
</g>
<!-- dir_a2119d90ee9eaca2bda1658db717bef2&#45;&gt;dir_0b787baa76c39143b24149c6a7d995f1 -->
<g id="edge4" class="edge">
<title>dir_a2119d90ee9eaca2bda1658db717bef2&#45;&gt;dir_0b787baa76c39143b24149c6a7d995f1</title>
<g id="a_edge4"><a xlink:href="dir_000018_000005.html" target="_top">
<path fill="none" stroke="#63b8ff" d="M100.33,-109.75C100.59,-102.8 100.97,-92.85 101.3,-84.13"/>
<polygon fill="#63b8ff" stroke="#63b8ff" points="104.8,-84.21 101.68,-74.09 97.8,-83.95 104.8,-84.21"/>
</a>
</g>
<g id="a_edge4&#45;headlabel"><a xlink:href="dir_000018_000005.html" target="_top" xlink:title="1">
<text text-anchor="middle" x="107.5" y="-85.41" font-family="Helvetica,sans-Serif" font-size="10.00" fill="#63b8ff">1</text>
</a>
</g>
</g>
<!-- dir_a2119d90ee9eaca2bda1658db717bef2&#45;&gt;dir_d44c64559bbebec7f509842c48db8b23 -->
<g id="edge5" class="edge">
<title>dir_a2119d90ee9eaca2bda1658db717bef2&#45;&gt;dir_d44c64559bbebec7f509842c48db8b23</title>
<g id="a_edge5"><a xlink:href="dir_000018_000008.html" target="_top">
<path fill="none" stroke="#63b8ff" d="M110.56,-109.66C132.49,-91.3 183.24,-48.81 210.65,-25.87"/>
<polygon fill="#63b8ff" stroke="#63b8ff" points="213.24,-28.26 218.66,-19.16 208.74,-22.89 213.24,-28.26"/>
</a>
</g>
<g id="a_edge5&#45;headlabel"><a xlink:href="dir_000018_000008.html" target="_top" xlink:title="2">
<text text-anchor="middle" x="212.3" y="-30.25" font-family="Helvetica,sans-Serif" font-size="10.00" fill="#63b8ff">2</text>
</a>
</g>
</g>
<!-- dir_36b1b4d9ea96a964d1f9ce85150c8ffa -->
<g id="node6" class="node">
<title>dir_36b1b4d9ea96a964d1f9ce85150c8ffa</title>
<g id="a_node6"><a xlink:href="dir_36b1b4d9ea96a964d1f9ce85150c8ffa.html" target="_top" xlink:title="shufflers">
<polygon fill="#a2b4d6" stroke="#404040" points="361.5,-129 302.5,-129 302.5,-110 361.5,-110 361.5,-129"/>
<text text-anchor="middle" x="332" y="-117" font-family="Helvetica,sans-Serif" font-size="10.00">shufflers</text>
</a>
</g>
</g>
<!-- dir_36b1b4d9ea96a964d1f9ce85150c8ffa&#45;&gt;dir_d44c64559bbebec7f509842c48db8b23 -->
<g id="edge6" class="edge">
<title>dir_36b1b4d9ea96a964d1f9ce85150c8ffa&#45;&gt;dir_d44c64559bbebec7f509842c48db8b23</title>
<g id="a_edge6"><a xlink:href="dir_000021_000008.html" target="_top">
<path fill="none" stroke="#63b8ff" d="M323.57,-109.66C306.21,-91.46 266.24,-49.55 244.23,-26.47"/>
<polygon fill="#63b8ff" stroke="#63b8ff" points="246.69,-23.98 237.26,-19.16 241.63,-28.81 246.69,-23.98"/>
</a>
</g>
<g id="a_edge6&#45;headlabel"><a xlink:href="dir_000021_000008.html" target="_top" xlink:title="2">
<text text-anchor="middle" x="251.23" y="-22.12" font-family="Helvetica,sans-Serif" font-size="10.00" fill="#63b8ff">2</text>
</a>
</g>
</g>
<!-- dir_26960c617593da76b6bdca1596cef581 -->
<g id="node7" class="node">
<title>dir_26960c617593da76b6bdca1596cef581</title>
<g id="a_node7"><a xlink:href="dir_26960c617593da76b6bdca1596cef581.html" target="_top" xlink:title="transforms">
<polygon fill="#a2b4d6" stroke="#404040" points="450,-129 380,-129 380,-110 450,-110 450,-129"/>
<text text-anchor="middle" x="415" y="-117" font-family="Helvetica,sans-Serif" font-size="10.00">transforms</text>
</a>
</g>
</g>
<!-- dir_26960c617593da76b6bdca1596cef581&#45;&gt;dir_d44c64559bbebec7f509842c48db8b23 -->
<g id="edge7" class="edge">
<title>dir_26960c617593da76b6bdca1596cef581&#45;&gt;dir_d44c64559bbebec7f509842c48db8b23</title>
<g id="a_edge7"><a xlink:href="dir_000024_000008.html" target="_top">
<path fill="none" stroke="#63b8ff" d="M400.09,-109.84C367.91,-91.16 291.68,-46.9 252.76,-24.3"/>
<polygon fill="#63b8ff" stroke="#63b8ff" points="254.12,-21.04 243.72,-19.05 250.61,-27.1 254.12,-21.04"/>
</a>
</g>
<g id="a_edge7&#45;headlabel"><a xlink:href="dir_000024_000008.html" target="_top" xlink:title="4">
<text text-anchor="middle" x="258.66" y="-17.89" font-family="Helvetica,sans-Serif" font-size="10.00" fill="#63b8ff">4</text>
</a>
</g>
</g>
<!-- dir_0b313c9b38990fed00ea821131677a0b -->
<g id="node8" class="node">
<title>dir_0b313c9b38990fed00ea821131677a0b</title>
<g id="a_node8"><a xlink:href="dir_0b313c9b38990fed00ea821131677a0b.html" target="_top" xlink:title="util">
<polygon fill="#a2b4d6" stroke="#404040" points="48,-129 16,-129 16,-110 48,-110 48,-129"/>
<text text-anchor="middle" x="32" y="-117" font-family="Helvetica,sans-Serif" font-size="10.00">util</text>
</a>
</g>
</g>
</g>
</svg>

<g id="navigator" transform="translate(0 0)" fill="#404254">
  <rect fill="#f2f5e9" fill-opacity="0.5" stroke="#606060" stroke-width=".5" x="0" y="0" width="60" height="60"/>
  <use id="zoomplus" xlink:href="#zoomPlus" x="17" y="9" onmousedown="handleZoom(evt,'in')"/>
  <use id="zoomminus" xlink:href="#zoomMin" x="42" y="9" onmousedown="handleZoom(evt,'out')"/>
  <use id="reset" xlink:href="#resetDef" x="30" y="36" onmousedown="handleReset()"/>
   <use id="arrowup" xlink:href="#arrowUp" x="0" y="0" onmousedown="handlePan(0,-1)"/>
  <use id="arrowright" xlink:href="#arrowRight" x="0" y="0" onmousedown="handlePan(1,0)"/>
  <use id="arrowdown" xlink:href="#arrowDown" x="0" y="0" onmousedown="handlePan(0,1)"/>
  <use id="arrowleft" xlink:href="#arrowLeft" x="0" y="0" onmousedown="handlePan(-1,0)"/>
</g>
<svg viewBox="0 0 15 15" width="100%" height="30px" preserveAspectRatio="xMaxYMin meet">
 <g id="arrow_out" transform="scale(0.3 0.3)">
  <a xlink:href="dir_e05d7e2b1ecd646af5bb94391405f3b5_dep_org.svg" target="_base">
   <rect id="button" ry="5" rx="5" y="6" x="6" height="38" width="38"
        fill="#f2f5e9" fill-opacity="0.5" stroke="#606060" stroke-width="1.0"/>
   <path id="arrow"
     d="M 11.500037,31.436501 C 11.940474,20.09759 22.043105,11.32322 32.158766,21.979434 L 37.068811,17.246167 C 37.068811,17.246167 37.088388,32 37.088388,32 L 22.160133,31.978069 C 22.160133,31.978069 26.997745,27.140456 26.997745,27.140456 C 18.528582,18.264221 13.291696,25.230495 11.500037,31.436501 z"
     style="fill:#404040;"/>
  </a>
 </g>
</svg>

<style type='text/css'>
<![CDATA[
[data-mouse-over-selected='false'] { opacity: 0.7; }
[data-mouse-over-selected='true']  { opacity: 1.0; }
]]>
</style>
<script type="application/ecmascript"><![CDATA[
document.addEventListener('DOMContentLoaded', (event) => {
  highlightEdges();
  highlightAdjacentNodes();
});
]]></script>
</svg>
