<?xml version="1.0" encoding="UTF-8" standalone="no"?>
<!DOCTYPE svg PUBLIC "-//W3C//DTD SVG 1.1//EN"
 "http://www.w3.org/Graphics/SVG/1.1/DTD/svg11.dtd">
<!-- Generated by graphviz version 2.43.0 (0)
 -->
<!-- Title: modules/predictors Pages: 1 -->
<svg width="377pt" height="125pt"
 viewBox="0.00 0.00 377.00 125.00" xmlns="http://www.w3.org/2000/svg" xmlns:xlink="http://www.w3.org/1999/xlink">
<g id="graph0" class="graph" transform="scale(1 1) rotate(0) translate(4 121)">
<title>modules/predictors</title>
<g id="clust1" class="cluster">
<title>clusterdir_e05d7e2b1ecd646af5bb94391405f3b5</title>
<g id="a_clust1"><a xlink:href="dir_e05d7e2b1ecd646af5bb94391405f3b5.html" target="_top" xlink:title="modules">
<polygon fill="#edf0f7" stroke="#404040" stroke-dasharray="5,2" points="8,-39 8,-109 361,-109 361,-39 8,-39"/>
<text text-anchor="middle" x="184.5" y="-97" font-family="Helvetica,sans-Serif" font-size="10.00">modules</text>
</a>
</g>
</g>
<g id="clust2" class="cluster">
<title>clusterdir_039aa6e2e019ab01d105c6f4af9f7064</title>
<g id="a_clust2"><a xlink:href="dir_039aa6e2e019ab01d105c6f4af9f7064.html" target="_top">
<polygon fill="#edf0f7" stroke="#404040" stroke-width="2" points="16,-47 16,-82 353,-82 353,-47 16,-47"/>
</a>
</g>
</g>
<!-- dir_039aa6e2e019ab01d105c6f4af9f7064 -->
<g id="node1" class="node">
<title>dir_039aa6e2e019ab01d105c6f4af9f7064</title>
<text text-anchor="middle" x="312" y="-62" font-family="Helvetica,sans-Serif" font-size="10.00">predictors</text>
</g>
<!-- dir_a4464b75b60ba878add6ea32a876d700 -->
<g id="node2" class="node">
<title>dir_a4464b75b60ba878add6ea32a876d700</title>
<g id="a_node2"><a xlink:href="dir_a4464b75b60ba878add6ea32a876d700.html" target="_top" xlink:title="lorenzo">
<polygon fill="#a2b4d6" stroke="#404040" points="261.5,-74 208.5,-74 208.5,-55 261.5,-55 261.5,-74"/>
<text text-anchor="middle" x="235" y="-62" font-family="Helvetica,sans-Serif" font-size="10.00">lorenzo</text>
</a>
</g>
</g>
<!-- dir_d44c64559bbebec7f509842c48db8b23 -->
<g id="node5" class="node">
<title>dir_d44c64559bbebec7f509842c48db8b23</title>
<g id="a_node5"><a xlink:href="dir_d44c64559bbebec7f509842c48db8b23.html" target="_top" xlink:title="include">
<polygon fill="#edf0f7" stroke="red" points="173,-19 121,-19 121,0 173,0 173,-19"/>
<text text-anchor="middle" x="147" y="-7" font-family="Helvetica,sans-Serif" font-size="10.00">include</text>
</a>
</g>
</g>
<!-- dir_a4464b75b60ba878add6ea32a876d700&#45;&gt;dir_d44c64559bbebec7f509842c48db8b23 -->
<g id="edge1" class="edge">
<title>dir_a4464b75b60ba878add6ea32a876d700&#45;&gt;dir_d44c64559bbebec7f509842c48db8b23</title>
<g id="a_edge1"><a xlink:href="dir_000006_000005.html" target="_top">
<path fill="none" stroke="#63b8ff" d="M222.86,-54.81C215.97,-49.99 207.12,-43.97 199,-39 190.58,-33.84 181.17,-28.55 172.69,-23.95"/>
<polygon fill="#63b8ff" stroke="#63b8ff" points="174.09,-20.73 163.62,-19.09 170.79,-26.9 174.09,-20.73"/>
</a>
</g>
<g id="a_edge1&#45;headlabel"><a xlink:href="dir_000006_000005.html" target="_top" xlink:title="1">
<text text-anchor="middle" x="178.6" y="-17.42" font-family="Helvetica,sans-Serif" font-size="10.00" fill="#63b8ff">1</text>
</a>
</g>
</g>
<!-- dir_3638096c0a5a58def8589c732eb4312d -->
<g id="node3" class="node">
<title>dir_3638096c0a5a58def8589c732eb4312d</title>
<g id="a_node3"><a xlink:href="dir_3638096c0a5a58def8589c732eb4312d.html" target="_top" xlink:title="lorenzo_quant">
<polygon fill="#a2b4d6" stroke="#404040" points="190,-74 104,-74 104,-55 190,-55 190,-74"/>
<text text-anchor="middle" x="147" y="-62" font-family="Helvetica,sans-Serif" font-size="10.00">lorenzo_quant</text>
</a>
</g>
</g>
<!-- dir_3638096c0a5a58def8589c732eb4312d&#45;&gt;dir_d44c64559bbebec7f509842c48db8b23 -->
<g id="edge2" class="edge">
<title>dir_3638096c0a5a58def8589c732eb4312d&#45;&gt;dir_d44c64559bbebec7f509842c48db8b23</title>
<g id="a_edge2"><a xlink:href="dir_000007_000005.html" target="_top">
<path fill="none" stroke="#63b8ff" d="M147,-54.75C147,-47.8 147,-37.85 147,-29.13"/>
<polygon fill="#63b8ff" stroke="#63b8ff" points="150.5,-29.09 147,-19.09 143.5,-29.09 150.5,-29.09"/>
</a>
</g>
<g id="a_edge2&#45;headlabel"><a xlink:href="dir_000007_000005.html" target="_top" xlink:title="1">
<text text-anchor="middle" x="153.34" y="-30.18" font-family="Helvetica,sans-Serif" font-size="10.00" fill="#63b8ff">1</text>
</a>
</g>
</g>
<!-- dir_c5c8bcaeda339604f6f249f25e7d78ae -->
<g id="node4" class="node">
<title>dir_c5c8bcaeda339604f6f249f25e7d78ae</title>
<g id="a_node4"><a xlink:href="dir_c5c8bcaeda339604f6f249f25e7d78ae.html" target="_top" xlink:title="quantizer">
<polygon fill="#a2b4d6" stroke="#404040" points="86,-74 24,-74 24,-55 86,-55 86,-74"/>
<text text-anchor="middle" x="55" y="-62" font-family="Helvetica,sans-Serif" font-size="10.00">quantizer</text>
</a>
</g>
</g>
<!-- dir_c5c8bcaeda339604f6f249f25e7d78ae&#45;&gt;dir_d44c64559bbebec7f509842c48db8b23 -->
<g id="edge3" class="edge">
<title>dir_c5c8bcaeda339604f6f249f25e7d78ae&#45;&gt;dir_d44c64559bbebec7f509842c48db8b23</title>
<g id="a_edge3"><a xlink:href="dir_000013_000005.html" target="_top">
<path fill="none" stroke="#63b8ff" d="M68.6,-54.94C76.29,-50.16 86.12,-44.15 95,-39 103.76,-33.92 113.47,-28.53 122.11,-23.83"/>
<polygon fill="#63b8ff" stroke="#63b8ff" points="123.83,-26.87 130.96,-19.03 120.5,-20.72 123.83,-26.87"/>
</a>
</g>
<g id="a_edge3&#45;headlabel"><a xlink:href="dir_000013_000005.html" target="_top" xlink:title="1">
<text text-anchor="middle" x="122.02" y="-28.58" font-family="Helvetica,sans-Serif" font-size="10.00" fill="#63b8ff">1</text>
</a>
</g>
</g>
</g>
</svg>
